<svg width="34" height="34" viewBox="0 0 34 34" fill="none" xmlns="http://www.w3.org/2000/svg">
<rect width="34" height="34" rx="17" fill="#3456F3"/>
<path fill-rule="evenodd" clip-rule="evenodd" d="M18.7927 18.2639C17.3608 19.6958 15.0392 19.6958 13.6073 18.2639C12.1754 16.832 12.1754 14.5104 13.6073 13.0784C15.0392 11.6465 17.3608 11.6465 18.7927 13.0784C20.2247 14.5104 20.2247 16.832 18.7927 18.2639ZM19.2331 19.6469C17.2729 21.1462 14.4573 20.9995 12.6645 19.2067C10.7119 17.2541 10.7119 14.0883 12.6645 12.1356C14.6171 10.183 17.7829 10.183 19.7355 12.1356C21.5283 13.9284 21.6751 16.7438 20.1759 18.704L23.7426 22.2707L22.7998 23.2135L19.2331 19.6469Z" fill="white"/>
</svg>
